<svg xmlns="http://www.w3.org/2000/svg" viewBox="0 0 900 900" role="img" aria-label="Escena de mesa artesanal">
  <rect width="900" height="900" fill="#f8efe8"/>
  <rect x="0" y="642" width="900" height="258" fill="#e7d9cd"/>
  <rect x="118" y="592" width="664" height="34" rx="17" fill="#ceb8a6"/>
  <ellipse cx="224" cy="580" rx="124" ry="20" fill="#e1d1c5"/>
  <ellipse cx="470" cy="580" rx="154" ry="24" fill="#e1d1c5"/>
  <ellipse cx="696" cy="580" rx="114" ry="18" fill="#e1d1c5"/>
  <path d="M168 388h112l-14 170c-4 34-32 60-70 60-38 0-66-26-70-60l-14-170z" fill="#fffaf6" stroke="#d5bfb2" stroke-width="8"/>
  <rect x="338" y="434" width="260" height="106" rx="34" fill="#fff9f5" stroke="#d5bfb2" stroke-width="8"/>
  <path d="M650 310h62c-16 54-12 88 12 132 18 32 28 62 28 96 0 66-30 104-71 104s-71-38-71-104c0-34 10-64 28-96 24-44 28-78 12-132z" fill="#fcf7f2" stroke="#d5bfb2" stroke-width="8"/>
</svg>
